# AST/ASF file generated using VICON BodyLanguage
# -----------------------------------------------
:version 1.10
:name VICON
:units
  mass 1.0
  length 0.45
  angle deg
:documentation
   .ast/.asf automatically generated from VICON data using
   VICON BodyBuilder and BodyLanguage model FoxedUp or BRILLIANT.MOD
:root
   order TX TY TZ RX RY RZ
   axis XYZ
   position 0 0 0  
   orientation 0 0 0 
:bonedata
  begin
     id 1 
     name lhipjoint
     direction 0.576517 -0.752066 0.319413 
     length 2.45433 
     axis 0 0 0  XYZ
  end
  begin
     id 2 
     name lfemur
     direction 0.34202 -0.939693 0  
     length 7.54459  
     axis 0 0 20  XYZ
    dof rx ry rz
    limits (-160.0 20.0)
           (-70.0 70.0)
           (-60.0 70.0)
  end
  begin
     id 3 
     name ltibia
     direction 0.34202 -0.939693 0   
     length 7.73986   
     axis 0 0 20   XYZ
    dof rx
    limits (-10.0 170.0)
  end
  begin
     id 4 
     name lfoot
     direction 0.090693 -0.249177 0.964202   
     length 2.28437   
     axis -90 7.62852e-016 20   XYZ
    dof rx rz
    limits (-45.0 90.0)
           (-70.0 20.0)
  end
  begin
     id 5 
     name ltoes
     direction 1.5356e-011 -4.21928e-011 1   
     length 1.14243   
     axis -90 7.62852e-016 20   XYZ
    dof rx
    limits (-90.0 20.0)
  end
  begin
     id 6 
     name rhipjoint
     direction -0.573937 -0.753736 0.320122   
     length 2.44889  
     axis 0 0 0  XYZ 
  end
  begin
     id 7 
     name rfemur
     direction -0.34202 -0.939693 0   
     length 7.50166   
     axis 0 0 -20   XYZ
    dof rx ry rz
    limits (-160.0 20.0)
           (-70.0 70.0)
           (-70.0 60.0)
  end
  begin
     id 8 
     name rtibia
     direction -0.34202 -0.939693 0   
     length 7.54266   
     axis 0 0 -20   XYZ
    dof rx
    limits (-10.0 170.0)
 end
 begin
     id 9 
     name rfoot
     direction -0.114017 -0.31326 0.942798   
     length 2.34212  
     axis -90 -7.62852e-016 -20   XYZ
    dof rx rz
    limits (-45.0 90.0)
           (-20.0 70.0)
  end
  begin
     id 10 
     name rtoes
     direction -1.53557e-011 -4.21867e-011 1   
     length 1.16246   
     axis -90 -7.62852e-016 -20   XYZ
    dof rx
    limits (-90.0 20.0)
  end
  begin
     id 11 
     name lowerback
     direction -0.0228371 0.999155 -0.034167   
     length 2.0537   
     axis 0 0 0   XYZ
    dof rx ry rz
    limits (-20.0 45.0)
           (-30.0 30.0)
           (-30.0 30.0)
  end
  begin
     id 12 
     name upperback
     direction 0.0198981 0.999794 0.00389455   
     length 2.05302   
     axis 0 0 0   XYZ
    dof rx ry rz
    limits (-20.0 45.0)
           (-30.0 30.0)
           (-30.0 30.0)
  end
  begin
     id 13 
     name thorax
     direction 0.0304566 0.99935 0.0192987   
     length 2.05315   
     axis 0 0 0   XYZ
    dof rx ry rz
    limits (-20.0 45.0)
           (-30.0 30.0)
           (-30.0 30.0)
  end
  begin
     id 14 
     name lowerneck
     direction -0.0196762 0.99417 0.106017   
     length 1.82056   
     axis 0 0 0   XYZ
    dof rx ry rz
    limits (-20.0 45.0)
           (-30.0 30.0)
           (-30.0 30.0)
  end
  begin
     id 15 
     name upperneck
     direction 0.00517787 0.9802 -0.197944   
     length 1.83835   
     axis 0 0 0   XYZ
    dof rx ry rz
    limits (-20.0 45.0)
           (-30.0 30.0)
           (-30.0 30.0)
  end
  begin
     id 16
     name head
     direction 0.00211419 0.996945 -0.078081  
     length 1.85629  
     axis 0 0 0   XYZ
    dof rx ry rz
    limits (-20.0 45.0)
           (-30.0 30.0)
           (-30.0 30.0)
  end
  begin
     id 17 
     name lclavicle
     direction 0.930001 0.365811 -0.0357824  
     length 3.81961  
     axis 0 0 0   XYZ
    dof ry rz
    limits (-20.0 10.0)
           (0.0 20.0)
  end
  begin
     id 18 
     name lhumerus
     direction 1 -4.48968e-011 -3.06644e-027   
     length 5.14507   
     axis 180 -30 -90   XYZ
    dof rx ry rz
    limits (-60.0 90.0)
           (-90.0 90.0)
           (-90.0 90.0)
  end
  begin
     id 19
     name lradius
     direction 1 -4.48965e-011 9.06925e-028   
     length 3.50646   
     axis 180 -30 -90   XYZ
    dof rx
    limits (-10.0 170.0)
  end
  begin
     id 20
     name lwrist
     direction 1 -4.48957e-011 1.03922e-027   
     length 1.75323   
     axis -2.56395e-016 90 90   XYZ
    dof ry
    limits (-180.0 0.0)
 end
  begin
     id 21 
     name lhand
     direction 1 -4.48967e-011 2.08017e-027   
     length 0.629969   
     axis -1.32723e-015 90 90   XYZ
    dof rx rz
    limits (-90.0 90.0)
           (-45.0 45.0)
  end
  begin
     id 22 
     name lfingers
     direction 1 -4.49089e-011 4.20095e-027   
     length 0.507897   
     axis -2.6545e-015 90 90   XYZ
    dof rx
    limits (0.0 90.0)
  end
  begin
     id 23
     name lthumb
     direction 0.707107 -6.35001e-011 0.707107   
     length 0.729241   
     axis -90 45 5.05613e-014   XYZ
    dof rx rz
    limits (-45.0 45.0)
           (-45.0 45.0)
  end
  begin
     id 24 
     name rclavicle
     direction -0.881882 0.464123 -0.0829113   
     length 3.47515  
     axis 0 0 0   XYZ 
    dof ry rz
    limits (-10.0 20.0)
           (-20.0 0.0)
  end
  begin
     id 25 
     name rhumerus
     direction -1 -4.48961e-011 -1.55672e-027  
     length 5.232   
     axis 180 30 90   XYZ
    dof rx ry rz
    limits (-90.0 60.0)
           (-90.0 90.0)
           (-90.0 90.0)
  end
  begin
     id 26 
     name rradius
     direction -1 -4.48963e-011 6.18178e-029   
     length 3.65641   
     axis 180 30 90   XYZ
    dof rx
    limits (-10.0 170.0)
  end
  begin
     id 27 
     name rwrist
     direction -1 -4.48982e-011 1.04136e-027   
     length 1.8282   
     axis -2.56395e-016 -90 -90   XYZ
    dof ry
    limits (-180.0 0.0)
  end
  begin
     id 28
     name rhand
     direction -1 -4.48929e-011 2.07378e-027   
     length 0.656807   
     axis -1.32723e-015 -90 -90   XYZ
    dof rx rz
    limits (-90.0 90.0)
           (-45.0 45.0)
  end
  begin
     id 29
     name rfingers
     direction -1 -4.489e-011 4.13816e-027   
     length 0.529535   
     axis -2.6545e-015 -90 -90   XYZ
    dof rx
    limits (0.0 90.0)
  end
  begin
     id 30
     name rthumb
     direction -0.707107 -6.34843e-011 0.707107   
     length 0.760309   
     axis -90 -45 -5.05613e-014   XYZ
    dof rx rz
    limits (-45.0 45.0)
           (-45.0 45.0)
  end
:hierarchy
  begin
    root lhipjoint rhipjoint lowerback
    lhipjoint lfemur
    lfemur ltibia
    ltibia lfoot
    lfoot ltoes
    rhipjoint rfemur
    rfemur rtibia
    rtibia rfoot
    rfoot rtoes
    lowerback upperback
    upperback thorax
    thorax lowerneck lclavicle rclavicle
    lowerneck upperneck
    upperneck head
    lclavicle lhumerus
    lhumerus lradius
    lradius lwrist
    lwrist lhand lthumb
    lhand lfingers
    rclavicle rhumerus
    rhumerus rradius
    rradius rwrist
    rwrist rhand rthumb
    rhand rfingers
  end

#!OML:ASF H:\ManfredETheater\Project 1\Capture day 1\Session 1\subject.ASF
:FULLY-SPECIFIED
:DEGREES
31
root -0.301018 16.149 25.0438 -166.211 1.59343 -189.575
lowerback 12.0931 -5.12843 -5.37455
upperback -0.786348 -7.46372 1.45752
thorax -6.70849 -3.41692 5.81976
lowerneck -18.0725 2.74074 0.461996
upperneck 0.757401 4.05061 -1.87689
head 3.50918 2.08477 -0.351561
rclavicle 9.74045e-014 -6.36111e-015
rhumerus -70.3602 -7.74217 -63.9328
rradius 81.5884
rwrist -12.917
rhand -30.4587 2.36399
rfingers 7.12502
rthumb -3.76044 -27.5826
lclavicle 9.74045e-014 -6.36111e-015
lhumerus -13.1388 -21.5174 92.0854
lradius 115.535
lwrist 8.04062
lhand -24.1259 -12.7625
lfingers 7.12502
lthumb 2.35574 17.2042
rfemur -66.6836 -10.4298 18.1096
rtibia 47.4643
rfoot -1.50476 -1.91957
rtoes -38.5758
lfemur 6.39279 -7.5646 -34.0328
ltibia 42.4306
lfoot 13.0433 -10.6741
ltoes -0.11166
32
root -0.290794 16.1488 24.452 -166.817 1.46911 -189.923
lowerback 12.1637 -5.08703 -5.58952
upperback -0.765569 -7.44267 1.4275
thorax -6.70607 -3.39864 5.90972
lowerneck -18.093 2.67726 0.415356
upperneck 0.956431 3.97924 -2.04697
head 3.58747 2.03369 -0.404812
rclavicle 1.43125e-014 -1.19271e-014
rhumerus -69.4521 -8.29773 -63.8928
rradius 83.1643
rwrist -12.9527
rhand -30.3736 2.32041
rfingers 7.12502
rthumb -3.67827 -27.6276
lclavicle 1.43125e-014 -1.19271e-014
lhumerus -13.9302 -21.6855 92.4774
lradius 114.261
lwrist 8.21008
lhand -23.8123 -12.3076
lfingers 7.12502
lthumb 2.65859 17.6556
rfemur -65.8774 -11.1148 18.4074
rtibia 46.1433
rfoot 0.0520188 -2.03609
rtoes -37.5756
lfemur 5.89273 -7.57797 -34.3363
ltibia 46.4191
lfoot 12.322 -9.41403
ltoes -0.246662
33
root -0.279949 16.1423 23.8664 -167.46 1.31927 -190.092
lowerback 12.3155 -5.00411 -5.66758
upperback -0.719425 -7.34564 1.44297
thorax -6.74311 -3.34517 5.96934
lowerneck -18.0637 2.5713 0.341139
upperneck 1.06315 3.85961 -2.18581
head 3.62088 1.96332 -0.448515
rclavicle 1.11319e-014 -1.51076e-014
rhumerus -68.2697 -8.90306 -64.1211
rradius 84.8285
rwrist -12.8375
rhand -30.3161 2.22391
rfingers 7.12502
rthumb -3.62269 -27.7251
lclavicle 1.11319e-014 -1.51076e-014
lhumerus -14.9031 -21.8311 93.1186
lradius 112.675
lwrist 8.79273
lhand -23.2617 -11.7435
lfingers 7.12502
lthumb 3.19037 18.2124
rfemur -64.9918 -11.7839 18.8532
rtibia 45.5428
rfoot 1.23363 -2.00984
rtoes -36.1809
lfemur 5.00089 -7.34961 -34.3225
ltibia 50.9409
lfoot 11.0529 -7.94475
ltoes -1.16771
34
root -0.26757 16.1321 23.2865 -168.15 1.17269 -190.015
lowerback 12.5657 -4.87433 -5.55968
upperback -0.648246 -7.15737 1.51661
thorax -6.83586 -3.24963 5.98401
lowerneck -17.9898 2.43215 0.262819
upperneck 1.0944 3.6977 -2.29947
head 3.61709 1.87599 -0.487856
rclavicle -8.70677e-014 2.70347e-014
rhumerus -66.8145 -9.52547 -64.652
rradius 86.5732
rwrist -12.6081
rhand -30.318 2.04695
rfingers 7.12502
rthumb -3.62453 -27.902
lclavicle -8.70677e-014 2.70347e-014
lhumerus -16.0496 -21.917 93.9843
lradius 110.784
lwrist 9.53352
lhand -22.5194 -11.0954
lfingers 7.12502
lthumb 3.90718 18.8485
rfemur -63.95 -12.3827 19.4917
rtibia 45.5735
rfoot 1.99223 -1.79916
rtoes -33.5853
lfemur 3.7646 -6.90679 -33.9212
ltibia 55.8052
lfoot 9.67991 -6.39891
ltoes -2.34925
35
root -0.252783 16.1205 22.7117 -168.899 1.0469 -189.659
lowerback 12.9247 -4.70691 -5.24661
upperback -0.553442 -6.88412 1.65566
thorax -6.99089 -3.11502 5.95078
lowerneck -17.8629 2.27949 0.192444
upperneck 1.06701 3.51535 -2.39245
head 3.5813 1.7816 -0.524277
rclavicle 3.97569e-014 -3.26007e-014
rhumerus -65.0666 -10.1072 -65.5109
rradius 88.3548
rwrist -12.2859
rhand -30.3408 1.89205
rfingers 7.12502
rthumb -3.64657 -28.0565
lclavicle 3.97569e-014 -3.26007e-014
lhumerus -17.3554 -21.8807 95.0229
lradius 108.59
lwrist 10.1554
lhand -21.6716 -10.4366
lfingers 7.12502
lthumb 4.72589 19.4907
rfemur -62.6798 -12.881 20.3344
rtibia 46.1376
rfoot 2.17732 -1.46985
rtoes -29.9097
lfemur 2.24138 -6.27949 -33.101
ltibia 60.8415
lfoot 8.39737 -5.04181
ltoes -3.4681
36
root -0.234657 16.1076 22.1433 -169.7 0.966084 -189.031
lowerback 13.4071 -4.50775 -4.74582
upperback -0.448162 -6.53236 1.85822
thorax -7.22548 -2.94255 5.87747
lowerneck -17.6976 2.12833 0.150557
upperneck 1.01143 3.32754 -2.47606
head 3.52826 1.68604 -0.563354
rclavicle -4.77083e-015 7.95139e-015
rhumerus -63.0105 -10.5863 -66.721
rradius 90.1369
rwrist -11.9171
rhand -30.3889 1.7471
rfingers 7.12502
rthumb -3.69298 -28.2006
lclavicle -4.77083e-015 7.95139e-015
lhumerus -18.7886 -21.6898 96.1609
lradius 106.087
lwrist 10.433
lhand -20.8668 -9.84802
lfingers 7.12502
lthumb 5.50293 20.0605
rfemur -61.1808 -13.22 21.3228
rtibia 47.1366
rfoot 1.75502 -1.14515
rtoes -25.3269
lfemur 0.443029 -5.48657 -31.8697
ltibia 65.9233
lfoot 7.18772 -4.08682
ltoes -3.88773
37
root -0.212757 16.0926 21.5831 -170.555 0.935849 -188.173
lowerback 14.0373 -4.28383 -4.09416
upperback -0.334703 -6.11113 2.11311
thorax -7.54921 -2.73476 5.77262
lowerneck -17.5142 1.98465 0.148989
upperneck 0.939509 3.14108 -2.56443
head 3.46685 1.59177 -0.610925
rclavicle 3.85642e-014 -5.56597e-014
rhumerus -60.6325 -10.9146 -68.2818
rradius 91.8743
rwrist -11.5243
rhand -30.4731 1.65158
rfingers 7.12502
rthumb -3.77431 -28.2947
lclavicle 3.85642e-014 -5.56597e-014
lhumerus -20.2934 -21.3496 97.316
lradius 103.274
lwrist 10.2747
lhand -20.2517 -9.39385
lfingers 7.12502
lthumb 6.09685 20.4984
rfemur -59.4717 -13.3663 22.3753
rtibia 48.5001
rfoot 0.709869 -1.09773
rtoes -20.4751
lfemur -1.60215 -4.56382 -30.2766
ltibia 70.9504
lfoot 5.93547 -3.51495
ltoes -3.7346
38
root -0.187068 16.0722 21.0328 -171.451 0.972898 -187.134
lowerback 14.8017 -4.04056 -3.33875
upperback -0.210902 -5.62674 2.41131
thorax -7.94455 -2.49426 5.64764
lowerneck -17.3281 1.85215 0.186244
upperneck 0.853816 2.96304 -2.6722
head 3.40125 1.50168 -0.670771
rclavicle -7.07673e-014 5.725e-014
rhumerus -57.9158 -11.0354 -70.1748
rradius 93.5133
rwrist -11.1024
rhand -30.5945 1.63004
rfingers 7.12502
rthumb -3.8916 -28.3142
lclavicle -7.07673e-014 5.725e-014
lhumerus -21.8092 -20.8627 98.4107
lradius 100.167
lwrist 9.70197
lhand -19.9236 -9.11244
lfingers 7.12502
lthumb 6.4136 20.7705
rfemur -57.5668 -13.2835 23.4289
rtibia 50.0668
rfoot -0.850077 -1.46632
rtoes -15.9159
lfemur -3.88113 -3.5342 -28.3864
ltibia 75.8087
lfoot 4.58464 -3.27484
ltoes -3.18223
39
root -0.158281 16.0451 20.4933 -172.378 1.08993 -185.932
lowerback 15.7287 -3.7822 -2.47405
upperback -0.100415 -5.07647 2.74783
thorax -8.45166 -2.21896 5.49299
lowerneck -17.1565 1.73152 0.252961
upperneck 0.782394 2.79656 -2.80681
head 3.34471 1.41599 -0.743252
rclavicle -4.33351e-014 -3.81667e-014
rhumerus -54.9137 -10.8919 -72.3353
rradius 95.0001
rwrist -10.6578
rhand -30.7009 1.71414
rfingers 7.12502
rthumb -3.99429 -28.2282
lclavicle -4.33351e-014 -3.81667e-014
lhumerus -23.3305 -20.2728 99.3992
lradius 96.8113
lwrist 8.91466
lhand -19.964 -8.97061
lfingers 7.12502
lthumb 6.3746 20.9135
rfemur -55.548 -12.9517 24.4767
rtibia 51.8659
rfoot -2.89091 -2.33146
rtoes -12.4847
lfemur -6.38877 -2.40625 -26.2321
ltibia 80.4837
lfoot 2.99561 -3.27355
ltoes -2.76605
40
root -0.125519 16.0464 19.9595 -173.296 1.2951 -184.577
lowerback 16.727 -3.51433 -1.49737
upperback 0.0227761 -4.45413 3.12855
thorax -8.98769 -1.91051 5.29649
lowerneck -17.0127 1.61324 0.323303
upperneck 0.69108 2.63724 -2.97259
head 3.28701 1.33389 -0.825524
rclavicle 9.14409e-015 1.43125e-014
rhumerus -51.6342 -10.4469 -74.689
rradius 96.2786
rwrist -10.1698
rhand -30.8001 1.87792
rfingers 7.12502
rthumb -4.09013 -28.0626
lclavicle 9.14409e-015 1.43125e-014
lhumerus -24.7888 -19.6477 100.242
lradius 93.2806
lwrist 8.17204
lhand -20.3766 -8.90239
lfingers 7.12502
lthumb 5.97621 20.9933
rfemur -53.2934 -12.395 25.5404
rtibia 53.6988
rfoot -5.32559 -3.63396
rtoes -10.615
lfemur -9.11934 -1.15991 -23.8322
ltibia 84.7641
lfoot 1.32426 -3.44368
ltoes -2.66898
41
root -0.0941443 16.0072 19.4398 -174.181 1.58124 -183.108
lowerback 17.7585 -3.24815 -0.4009
upperback 0.158822 -3.76777 3.5338
thorax -9.52818 -1.57565 5.02677
lowerneck -16.917 1.49512 0.392609
upperneck 0.58528 2.48359 -3.16553
head 3.23377 1.25487 -0.915478
rclavicle -8.34896e-015 3.97569e-014
rhumerus -48.1684 -9.67698 -77.1455
rradius 97.3053
rwrist -9.66015
rhand -30.8696 2.11241
rfingers 7.12502
rthumb -4.15719 -27.8268
lclavicle -8.34896e-015 3.97569e-014
lhumerus -26.19 -19.0734 100.922
lradius 89.6856
lwrist 7.80026
lhand -21.0861 -8.8806
lfingers 7.12502
lthumb 5.29122 21.0333
rfemur -51.1727 -11.6395 26.6524
rtibia 55.6738
rfoot -7.83662 -5.23387
rtoes -10.7248
lfemur -12.1608 0.183953 -21.2853
ltibia 88.8707
lfoot -0.571173 -3.66445
ltoes -2.80489
42
root -0.0638668 15.9615 18.9282 -174.958 1.90857 -181.597
lowerback 18.7255 -3.00047 0.778316
upperback 0.285219 -3.05054 3.94594
thorax -10.0343 -1.2329 4.68571
lowerneck -16.8635 1.377 0.453478
upperneck 0.46972 2.33626 -3.38244
head 3.18527 1.1792 -1.01086
rclavicle 4.37326e-014 1.11319e-014
rhumerus -44.6395 -8.56292 -79.6042
rradius 98.0459
rwrist -9.15436
rhand -30.878 2.3884
rfingers 7.12502
rthumb -4.16537 -27.5506
lclavicle 4.37326e-014 1.11319e-014
lhumerus -27.5707 -18.6071 101.453
lradius 86.1588
lwrist 7.99158
lhand -21.9563 -8.89782
lfingers 7.12502
lthumb 4.45098 21.0354
rfemur -49.098 -10.8202 27.8046
rtibia 57.5942
rfoot -10.329 -6.90456
rtoes -11.4386
lfemur -15.5268 1.58203 -18.7102
ltibia 92.6027
lfoot -2.55109 -3.90505
ltoes -3.15692
